<?xml version="1.0" standalone="no"?>
<!DOCTYPE svg PUBLIC "-//W3C//DTD SVG 20010904//EN"
 "http://www.w3.org/TR/2001/REC-SVG-20010904/DTD/svg10.dtd">
<svg version="1.0" xmlns="http://www.w3.org/2000/svg"
 width="1136.000000pt" height="1136.000000pt" viewBox="0 0 1136.000000 1136.000000"
 preserveAspectRatio="xMidYMid meet">
<metadata>
Created by potrace 1.11, written by Peter Selinger 2001-2013
</metadata>
<g transform="translate(0.000000,1136.000000) scale(0.100000,-0.100000)"
fill="#000000" stroke="none">
<path d="M7222 9961 c-4 -3 -8 -835 -7 -1848 l0 -1843 -1055 -2 -1055 -3 -1
-180 c-1 -99 -3 -184 -4 -190 -1 -5 -1 -14 0 -20 1 -5 3 -37 4 -70 l1 -60
1053 -1 c578 -1 1053 2 1053 5 1 3 2 119 3 258 1 138 4 254 7 257 3 3 931 6
2062 6 l2057 0 -2 95 c-2 52 1 95 5 95 5 0 5 5 2 10 -9 15 -10 384 -1 398 4 7
4 12 -1 12 -9 0 -9 372 0 386 3 6 2 16 -3 24 -4 7 -6 18 -4 25 4 8 -64 11
-263 11 l-268 0 -1 789 0 790 -535 3 -534 2 0 320 c0 279 -2 320 -15 321 -8 1
-100 2 -205 2 l-190 2 -6 38 c-3 21 -3 40 1 42 5 3 4 21 0 40 -4 19 -5 37 -1
39 4 3 6 20 4 38 -2 18 -3 51 -3 73 1 22 2 59 2 82 1 24 -2 46 -6 50 -9 9
-2081 12 -2094 4z"/>
<path d="M866 4513 c-1 -1 -13 -3 -26 -6 -25 -3 -167 -45 -245 -71 -22 -8 -89
-28 -150 -46 -60 -18 -117 -35 -125 -38 -8 -3 -19 -6 -25 -7 -30 -8 -279 -86
-286 -91 -5 -3 -9 -50 -9 -105 l0 -99 33 -1 c17 0 96 -1 174 -1 l142 0 0
-1204 0 -1204 -52 -15 c-29 -8 -65 -17 -82 -20 -36 -6 -161 -41 -173 -49 -5
-3 -8 -47 -8 -98 l1 -93 690 -3 690 -2 0 96 c0 110 5 105 -105 128 -41 9 -84
19 -95 21 -85 20 -131 28 -137 27 -15 -4 -17 48 -15 373 2 260 5 329 15 327
68 -13 482 -22 482 -10 0 4 6 5 14 2 7 -3 53 2 102 12 111 20 119 22 119 24 0
1 10 3 23 6 77 14 278 111 363 174 54 41 189 174 189 188 0 6 4 12 9 12 11 0
62 80 104 160 37 73 83 204 96 277 6 32 14 69 17 83 10 42 14 343 4 385 -4 22
-11 60 -14 84 -12 88 -52 215 -97 302 -40 78 -60 111 -116 188 -25 34 -106
109 -162 149 -45 33 -158 90 -193 98 -10 2 -28 7 -40 10 -74 19 -115 23 -218
20 -128 -4 -233 -30 -355 -87 -39 -18 -73 -32 -77 -31 -5 1 -8 -2 -8 -6 0 -5
-24 -19 -52 -33 -29 -13 -55 -27 -58 -30 -3 -4 -25 -17 -50 -30 -25 -13 -47
-26 -50 -30 -3 -3 -14 -9 -26 -13 -20 -6 -21 -4 -20 125 1 72 -2 135 -5 140
-5 8 -186 19 -193 12z m564 -477 c227 -48 351 -187 406 -456 14 -70 20 -287
10 -370 -14 -111 -71 -310 -95 -330 -3 -3 -14 -21 -25 -40 -32 -60 -137 -153
-217 -193 -61 -30 -198 -70 -227 -66 -4 1 -11 0 -17 -1 -5 -1 -53 -3 -106 -3
l-96 -2 1 722 c1 397 3 724 6 726 3 3 36 8 74 11 39 4 71 8 73 9 4 5 186 -1
213 -7z"/>
<path d="M5880 4512 c-85 -11 -239 -95 -241 -132 0 -8 -1 -199 -2 -425 l-2
-410 -45 -60 c-25 -33 -51 -66 -57 -75 -7 -8 -51 -67 -97 -130 -47 -63 -90
-121 -96 -128 -26 -30 -110 -144 -110 -148 0 -3 -6 -11 -12 -18 -7 -7 -24 -28
-38 -46 -14 -18 -37 -48 -51 -67 l-27 -33 0 787 c0 434 -1 799 -1 813 l-1 25
-253 0 -253 0 -27 -43 c-15 -24 -27 -47 -27 -53 0 -5 -4 -9 -10 -9 -5 0 -10
-7 -10 -15 0 -8 -3 -15 -8 -15 -4 0 -14 -15 -22 -32 -7 -18 -18 -37 -22 -43
-17 -20 -98 -157 -98 -166 0 -5 -4 -9 -10 -9 -5 0 -10 -4 -10 -8 0 -7 -42 -80
-127 -220 -13 -20 -40 -65 -60 -100 -21 -35 -52 -86 -70 -115 -18 -29 -38 -63
-45 -77 -7 -14 -18 -29 -25 -33 -7 -4 -13 -13 -13 -18 0 -6 -46 -85 -101 -177
-56 -92 -110 -183 -121 -202 -11 -19 -25 -40 -31 -47 -9 -9 -12 151 -11 675 0
378 -3 692 -7 697 -13 17 -327 10 -357 -9 -5 -3 -22 -8 -38 -10 -50 -10 -67
-14 -134 -31 -36 -9 -76 -19 -90 -22 -40 -8 -55 -11 -57 -13 -2 -2 -7 -4 -13
-5 -5 -1 -11 -3 -12 -5 -2 -1 -12 -3 -23 -5 -17 -2 -54 -11 -120 -28 -5 -2
-55 -14 -111 -26 l-101 -24 0 -98 c0 -55 3 -99 6 -100 10 -2 54 -6 129 -13 41
-3 88 -8 105 -11 18 -2 57 -7 87 -10 30 -3 63 -7 74 -9 17 -2 19 -15 20 -184
0 -100 -3 -182 -7 -182 -5 0 -5 -5 -1 -11 10 -16 11 -469 1 -469 -5 0 -5 -5
-1 -11 10 -16 11 -149 1 -149 -5 0 -5 -5 -1 -11 10 -16 11 -469 1 -469 -5 0
-5 -5 -1 -12 4 -6 8 -59 8 -117 l1 -106 270 0 269 0 54 85 c29 47 57 94 62
105 6 11 28 49 50 84 22 34 40 67 40 71 0 5 3 10 8 12 6 2 86 130 176 281 10
18 27 46 38 62 10 17 21 38 24 48 4 9 10 17 15 17 5 0 9 7 9 15 0 8 3 15 8 15
4 0 13 15 21 33 8 17 17 34 20 37 7 5 168 269 210 343 13 23 28 45 33 48 5 3
9 9 8 13 0 4 7 18 17 32 19 25 19 11 18 -623 0 -356 1 -655 3 -664 3 -13 39
-15 298 -15 284 1 296 2 310 21 8 11 26 34 39 50 14 17 62 77 106 135 45 58
84 107 88 110 3 3 26 32 51 65 24 33 49 65 55 72 5 6 20 24 31 40 25 33 149
191 167 213 7 8 68 87 137 175 68 88 128 165 132 170 16 20 80 100 92 116 8 9
40 52 72 95 33 44 65 85 72 92 6 7 12 17 12 21 0 4 8 16 18 27 54 58 157 257
170 329 11 54 5 204 -8 220 -7 8 -9 15 -5 15 13 0 -48 94 -84 131 -38 38 -114
78 -181 96 -21 6 -120 9 -150 5z"/>
<path d="M7477 4514 c-1 -1 -27 -4 -57 -8 -90 -9 -134 -15 -155 -20 -11 -3
-49 -12 -85 -21 -36 -9 -78 -22 -95 -29 -16 -8 -41 -17 -55 -21 -14 -4 -37
-14 -52 -21 -15 -8 -30 -13 -32 -12 -2 2 -12 -4 -22 -12 -11 -8 -35 -24 -54
-34 -93 -51 -235 -176 -316 -278 -15 -19 -104 -167 -104 -173 0 -3 -9 -25 -21
-49 -11 -25 -22 -51 -23 -58 -2 -7 -6 -20 -9 -28 -11 -25 -38 -142 -45 -195
-7 -53 -7 -327 1 -385 19 -144 102 -345 192 -465 174 -232 379 -358 665 -410
95 -17 264 -21 415 -10 61 4 120 9 133 9 12 1 22 4 22 7 0 3 6 6 13 6 20 1 90
13 127 23 19 5 37 9 40 9 25 -2 443 161 464 181 10 10 12 368 2 377 -3 4 -32
-7 -63 -22 -32 -16 -60 -30 -63 -30 -3 0 -36 -15 -73 -33 -38 -18 -70 -32 -71
-32 -2 0 -20 -7 -40 -15 -20 -8 -38 -15 -41 -16 -2 0 -21 -7 -41 -15 -20 -8
-75 -23 -123 -33 -159 -33 -338 -11 -442 55 -21 13 -42 24 -46 24 -15 0 -150
148 -166 183 -10 20 -22 39 -27 42 -6 3 -10 13 -10 22 0 9 -7 24 -15 33 -8 9
-16 29 -17 43 -1 15 -7 27 -12 27 -5 0 -7 3 -3 6 3 3 -1 23 -8 44 -24 67 -36
166 -37 295 0 90 7 204 16 234 3 9 7 34 11 55 8 59 31 122 73 206 46 93 141
191 232 239 62 33 195 75 209 66 4 -2 7 -128 7 -280 l-1 -276 30 -23 c72 -54
227 -95 337 -90 157 8 271 77 337 203 37 73 39 217 4 311 -4 8 -5 18 -5 23 1
4 -3 7 -8 7 -5 0 -9 3 -8 8 7 28 -97 147 -174 200 -90 61 -245 120 -358 137
-25 4 -58 9 -75 12 -28 5 -273 11 -278 7z"/>
</g>
</svg>
